<svg width="43" height="26" viewBox="0 0 43 26" fill="none" xmlns="http://www.w3.org/2000/svg">
<path d="M29.2254 0.220851H0.25295V19.5704H29.2254V0.220851Z" fill="#BE90BE"/>
<path d="M1.91324 0.221218H0.253958V19.5705H1.91324V0.221218Z" fill="#D3B4D3"/>
<path d="M29.2254 0.220851L27.5662 0.221218V19.5705L29.2254 19.5704V0.220851Z" fill="#A76BA7"/>
<path d="M42.025 12.1091V19.5704H29.2248V4.42377H33.2281C33.8689 4.42377 34.4829 4.64418 34.9345 5.03863L41.318 10.6184C41.7694 11.0129 42.025 11.5494 42.025 12.1091Z" fill="white"/>
<path d="M42.025 12.1091V19.5704H29.2248V4.42377H33.2281C33.8689 4.42377 34.4829 4.64418 34.9345 5.03863L41.318 10.6184C41.7694 11.0129 42.025 11.5494 42.025 12.1091Z" fill="white"/>
<path d="M42.0265 12.1099V19.5705H40.8225V13.2295C40.8225 12.6698 40.5696 12.1335 40.1176 11.7386L33.7334 6.15814C33.2816 5.76332 32.6677 5.54233 32.0268 5.54233H29.2242V4.42274H33.2275C33.8682 4.42274 34.4824 4.64388 34.9345 5.03863L41.318 10.6184C41.77 11.0133 42.0265 11.5501 42.0265 12.1099Z" fill="#EDEDED"/>
<path d="M40.0034 12.3991H30.8845V5.87382H33.2281C33.4273 5.87382 33.6133 5.94052 33.756 6.05945L40.2956 11.7843C40.5544 12.0135 40.3718 12.3991 40.0034 12.3991Z" fill="#7AD2FA"/>
<path d="M36.4686 8.43283L34.4753 12.3987H30.941L34.0168 6.28493L36.4686 8.43283Z" fill="#A5E1FB"/>
<path d="M37.7332 9.53775L36.2932 12.3987H35.2612L37.0149 8.91019L37.7332 9.53775Z" fill="#A5E1FB"/>
<path d="M40.0034 12.62H30.8846C30.745 12.62 30.6317 12.5211 30.6317 12.399V5.87382C30.6317 5.7518 30.745 5.65283 30.8846 5.65283H33.228C33.4901 5.65283 33.7394 5.74028 33.9305 5.89943L40.4747 11.6285C40.6688 11.8 40.7231 12.0434 40.6177 12.2638C40.5125 12.4837 40.277 12.62 40.0034 12.62ZM31.1376 12.1781H40.0034C40.0999 12.1781 40.1388 12.1188 40.151 12.0935C40.1632 12.0676 40.1846 12.0009 40.1157 11.9399L33.5768 6.21537C33.4849 6.13914 33.3594 6.09482 33.228 6.09482H31.1376V12.1781Z" fill="#333333"/>
<path d="M42.0239 15.0872V17.2954H38.6881C38.4841 17.2954 38.3153 17.1514 38.3153 16.9696V16.2391C38.3153 16.1499 38.3585 16.0677 38.4213 16.006C38.7667 15.7077 39.0022 15.502 39.3357 15.2071C39.43 15.1317 39.5438 15.0871 39.6654 15.0871L42.0239 15.0872Z" fill="#FEE9B4"/>
<path d="M42.7473 20.1301V21.2496C42.7473 21.5587 42.4605 21.8093 42.1066 21.8093H0.893836C0.540009 21.8093 0.253118 21.5586 0.253118 21.2495L0.25295 19.5704H42.1066C42.4604 19.5704 42.7473 19.821 42.7473 20.1301Z" fill="#D3D9D9"/>
<path d="M2.55421 21.8098H0.894928C0.540849 21.8098 0.254126 21.5593 0.254126 21.25L0.253958 19.5705H1.91324L1.91341 21.2499C1.91341 21.5593 2.20005 21.8098 2.55421 21.8098Z" fill="#EDEDED"/>
<path d="M42.7473 20.1301V21.2496C42.7473 21.5587 42.4605 21.8093 42.1066 21.8093L40.4473 21.8097C40.8014 21.8097 41.0881 21.5592 41.0881 21.2499V20.1303C41.0881 19.8209 40.8014 19.5705 40.4473 19.5705L42.1066 19.5704C42.4604 19.5704 42.7473 19.821 42.7473 20.1301Z" fill="#A8B2B4"/>
<path d="M33.7698 25.7791C36.2795 25.7791 38.314 24.0016 38.314 21.809C38.314 19.6165 36.2795 17.839 33.7698 17.839C31.26 17.839 29.2255 19.6165 29.2255 21.809C29.2255 24.0016 31.26 25.7791 33.7698 25.7791Z" fill="#A8B2B4"/>
<path d="M11.8306 23.3286C12.7911 21.3029 11.69 18.9805 9.37127 18.1414C7.05255 17.3023 4.39424 18.2643 3.43377 20.29C2.47331 22.3157 3.57439 24.6381 5.89312 25.4772C8.21184 26.3163 10.8701 25.3544 11.8306 23.3286Z" fill="#A8B2B4"/>
<path d="M33.7698 23.4216C32.7519 23.4216 31.9238 22.6983 31.9238 21.8091C31.9238 20.9199 32.7519 20.1967 33.7698 20.1967C34.787 20.1967 35.6151 20.9199 35.6151 21.8091C35.6151 22.6983 34.7871 23.4216 33.7698 23.4216Z" fill="white"/>
<path d="M7.63133 23.4216C6.61411 23.4216 5.78594 22.6983 5.78594 21.8091C5.78594 20.9199 6.61411 20.1967 7.63133 20.1967C8.64922 20.1967 9.47731 20.9199 9.47731 21.8091C9.47731 22.6983 8.64922 23.4216 7.63133 23.4216Z" fill="white"/>
<path d="M38.3153 21.8089C38.3153 24.0014 36.2781 25.7814 33.7685 25.7814C32.1426 25.7814 30.7192 25.0329 29.923 23.9071C30.6112 24.2785 31.4274 24.4965 32.2978 24.4965C34.8074 24.4965 36.8448 22.7166 36.8448 20.5241C36.8448 19.7578 36.5952 19.0388 36.1634 18.4377C37.452 19.1332 38.3153 20.3826 38.3153 21.8089Z" fill="#7C8B8E"/>
<path d="M12.179 21.8089C12.179 24.0014 10.1416 25.7814 7.632 25.7814C5.99942 25.7814 4.56917 25.0329 3.77316 23.9012C4.46133 24.2784 5.2843 24.4965 6.16135 24.4965C8.67097 24.4965 10.7084 22.7165 10.7084 20.524C10.7084 19.7578 10.4587 19.0387 10.027 18.4376C11.3153 19.1332 12.179 20.3826 12.179 21.8089Z" fill="#7C8B8E"/>
<path d="M42.2779 19.3645V12.1091C42.2779 11.4959 41.993 10.8957 41.4967 10.4624L35.1132 4.88234C34.6115 4.44409 33.942 4.20269 33.228 4.20269H29.4787V0.220998C29.4787 0.0989794 29.3654 0 29.2257 0H0.252961C0.113295 0 0 0.0989794 0 0.220998V21.2495C0 21.68 0.400774 22.0301 0.893847 22.0301H2.84682C2.9796 24.238 5.07141 26 7.63134 26C10.1909 26 12.2827 24.238 12.4155 22.0301H28.9851C29.1179 24.238 31.2097 26 33.7696 26C36.3292 26 38.421 24.238 38.5538 22.0301H42.1065C42.5992 22.0301 43 21.6799 43 21.2495V20.1302C43.0002 19.751 42.6888 19.4346 42.2779 19.3645ZM29.4787 4.64462H33.228C33.807 4.64462 34.3494 4.84001 34.7555 5.19476L41.139 10.7748C41.5414 11.1261 41.772 11.6124 41.772 12.109V14.866H39.6655C39.4837 14.866 39.3105 14.9276 39.1559 15.0516C38.8229 15.346 38.5881 15.5511 38.2321 15.8593C38.1228 15.9669 38.0625 16.1019 38.0625 16.2391V16.9696C38.0625 17.2712 38.3431 17.5163 38.6882 17.5163H41.772V19.3492H37.6451C36.7721 18.3022 35.3624 17.6179 33.7697 17.6179C32.1768 17.6179 30.7669 18.3022 29.8939 19.3492H29.4787V4.64462ZM41.772 15.3081V17.0745H38.6882C38.6221 17.0745 38.5684 17.0276 38.5684 16.9698V16.2392C38.5684 16.2104 38.5835 16.179 38.599 16.1633C38.9452 15.8643 39.1813 15.658 39.5067 15.37C39.542 15.3418 39.5983 15.3081 39.6655 15.3081H41.772ZM0.505839 0.441995H28.9726V19.3493H11.5069C10.6339 18.3024 9.22411 17.618 7.63142 17.618C6.03857 17.618 4.62864 18.3024 3.75562 19.3493H0.505755L0.505839 0.441995ZM0.893931 21.5882C0.679855 21.5882 0.505923 21.4362 0.505923 21.2495V19.7913H3.429C3.0892 20.3293 2.88579 20.9398 2.84682 21.5882H0.893931ZM7.63142 25.5581C5.26499 25.5581 3.33998 23.8762 3.33998 21.8092C3.33998 19.7419 5.26507 18.06 7.63142 18.06C9.99743 18.06 11.9225 19.7419 11.9225 21.8092C11.9226 23.8762 9.99743 25.5581 7.63142 25.5581ZM11.8335 19.7913H29.5674C29.2276 20.3293 29.0242 20.9398 28.9852 21.5882H12.4157C12.3767 20.9398 12.1733 20.3293 11.8335 19.7913ZM33.7698 25.5581C31.4033 25.5581 29.4783 23.8762 29.4783 21.8092C29.4783 19.7419 31.4034 18.06 33.7698 18.06C36.1359 18.06 38.0609 19.7419 38.0609 21.8092C38.0609 23.8762 36.1358 25.5581 33.7698 25.5581ZM42.4942 21.2495C42.4942 21.4362 42.3202 21.5882 42.1065 21.5882H38.5539C38.5149 20.9398 38.3115 20.3293 37.9717 19.7913H42.1065C42.3202 19.7913 42.4942 19.9433 42.4942 20.1303V21.2495Z" fill="#333333"/>
<path d="M32.9759 14.0662H30.8845C30.7449 14.0662 30.6316 13.9672 30.6316 13.8452C30.6316 13.7232 30.7449 13.6242 30.8845 13.6242H32.9759C33.1156 13.6242 33.2289 13.7232 33.2289 13.8452C33.229 13.9672 33.1157 14.0662 32.9759 14.0662Z" fill="#333333"/>
</svg>
