<svg width="42" height="46" viewBox="0 0 42 46" fill="none" xmlns="http://www.w3.org/2000/svg">
<path d="M34.8471 27.7432H29.9252V30.4744H34.8471C35.5033 30.4744 36.0939 31.0494 36.0939 31.84C36.0939 32.6307 35.5689 33.2057 34.8471 33.2057H4.13457C3.47832 33.2057 2.8877 33.7807 2.8877 34.5713C2.8877 35.29 3.4127 35.9369 4.13457 35.9369H34.9127C36.9471 35.9369 38.5877 34.14 38.5877 31.9119C38.5877 29.54 36.8814 27.7432 34.8471 27.7432Z" fill="#B2C1C0"/>
<path d="M35.766 18.4717L33.3379 18.2561C33.3379 18.1842 34.8473 8.33731 35.1754 6.3248C35.3723 5.1748 35.766 1.94043 39.5066 1.94043V4.67168C37.9973 4.67168 37.8004 5.31856 37.6691 6.54043C37.2754 8.55293 35.766 18.3279 35.766 18.4717Z" fill="#B2C1C0"/>
<path d="M35.8971 8.84082H2.62524C1.37837 8.84082 1.18149 10.1346 1.37837 10.8533L5.119 29.1096C5.31587 29.8283 5.97212 30.4033 6.69399 30.4033H32.8127C33.469 30.4033 34.1252 29.8283 34.2565 29.0377L37.0127 10.1346C37.0784 9.4877 36.5534 8.84082 35.8971 8.84082ZM4.52837 14.9502L3.87212 12.2189C3.80649 11.8596 4.00337 11.5721 4.3315 11.5721H8.99087C9.31899 11.5721 9.64712 11.8596 9.64712 12.2189L9.90962 14.9502C9.97524 15.3096 9.71274 15.5971 9.38462 15.5971H5.25025C4.92212 15.5971 4.594 15.3096 4.52837 14.9502ZM6.62837 21.6346C6.30024 21.6346 5.97212 21.3471 5.84087 20.9877L5.38149 18.9033C5.31587 18.5439 5.51274 18.2564 5.84087 18.2564H9.5815C9.90962 18.2564 10.2377 18.5439 10.2377 18.9033L10.4346 20.9158C10.5002 21.2752 10.2377 21.5627 9.90962 21.5627C9.97524 21.6346 6.62837 21.6346 6.62837 21.6346ZM10.5659 27.7439H8.00649C7.67837 27.7439 7.35024 27.4564 7.21899 27.0971L6.75962 25.0127C6.69399 24.6533 6.89087 24.3658 7.21899 24.3658H10.1721C10.5002 24.3658 10.8284 24.6533 10.8284 25.0127L11.0252 27.0252C11.1565 27.3846 10.894 27.7439 10.5659 27.7439ZM18.1127 27.0252C18.1127 27.3846 17.8502 27.6721 17.5221 27.6721H14.3065C13.9784 27.6721 13.6502 27.3846 13.6502 27.0252L13.4534 25.0127C13.3877 24.6533 13.6502 24.3658 13.9784 24.3658H17.5221C17.8502 24.3658 18.1127 24.6533 18.1127 25.0127V27.0252ZM18.1127 20.9877C18.1127 21.3471 17.8502 21.6346 17.5221 21.6346H13.7159C13.3877 21.6346 13.0596 21.3471 13.0596 20.9877L12.8627 18.9752C12.7971 18.6158 13.0596 18.3283 13.3877 18.3283H17.5221C17.8502 18.3283 18.1127 18.6158 18.1127 18.9752V20.9877ZM18.1127 14.9502C18.1127 15.3096 17.8502 15.5971 17.5221 15.5971H13.1252C12.7971 15.5971 12.469 15.3096 12.469 14.9502L12.1409 12.2189C12.0752 11.8596 12.3377 11.5721 12.6659 11.5721H17.4565C17.7846 11.5721 18.0471 11.8596 18.0471 12.2189C18.1127 12.2189 18.1127 14.9502 18.1127 14.9502ZM24.8065 27.0252C24.7409 27.3846 24.4784 27.6721 24.1502 27.6721H21.2627C20.9346 27.6721 20.6721 27.3846 20.6721 27.0252V25.0127C20.6721 24.6533 20.9346 24.3658 21.2627 24.3658H24.4784C24.8065 24.3658 25.069 24.6533 25.0034 25.0127L24.8065 27.0252ZM25.3971 20.9877C25.3315 21.3471 25.069 21.6346 24.7409 21.6346H21.2627C20.9346 21.6346 20.6721 21.3471 20.6721 20.9877V18.9752C20.6721 18.6158 20.9346 18.3283 21.2627 18.3283H25.069C25.3971 18.3283 25.6596 18.6158 25.594 18.9752L25.3971 20.9877ZM25.9877 14.9502C25.9221 15.3096 25.6596 15.5971 25.3315 15.5971H21.2627C20.9346 15.5971 20.6721 15.3096 20.6721 14.9502V12.2189C20.6721 11.8596 20.9346 11.5721 21.2627 11.5721H25.7252C26.0534 11.5721 26.3159 11.8596 26.2502 12.2189L25.9877 14.9502ZM31.6971 27.0252C31.6315 27.3846 31.3034 27.6721 30.9752 27.6721H27.8252C27.4971 27.6721 27.2346 27.3846 27.3002 27.0252L27.4971 25.0127C27.5627 24.6533 27.8252 24.3658 28.1534 24.3658H31.5002C31.8284 24.3658 32.0909 24.6533 32.0252 25.0127L31.6971 27.0252ZM32.5502 20.9877C32.4846 21.3471 32.1565 21.6346 31.8284 21.6346H28.3502C28.0221 21.6346 27.7596 21.3471 27.8252 20.9877L28.0221 18.9752C28.0877 18.6158 28.3502 18.3283 28.6784 18.3283H32.2877C32.6159 18.3283 32.8784 18.6158 32.8127 18.9752L32.5502 20.9877ZM33.4034 14.9502C33.3377 15.3096 33.0096 15.5971 32.6815 15.5971H28.9409C28.6127 15.5971 28.3502 15.3096 28.4159 14.9502L28.6784 12.2189C28.744 11.8596 29.0065 11.5721 29.3346 11.5721H33.2065C33.5346 11.5721 33.7971 11.8596 33.7315 12.2189L33.4034 14.9502Z" fill="#F15744"/>
<path d="M8.07148 44.5627C10.1011 44.5627 11.7465 42.7606 11.7465 40.5377C11.7465 38.3148 10.1011 36.5127 8.07148 36.5127C6.04184 36.5127 4.39648 38.3148 4.39648 40.5377C4.39648 42.7606 6.04184 44.5627 8.07148 44.5627Z" fill="#62727A"/>
<path d="M8.07188 42.5504C9.0867 42.5504 9.90938 41.6494 9.90938 40.5379C9.90938 39.4264 9.0867 38.5254 8.07188 38.5254C7.05705 38.5254 6.23438 39.4264 6.23438 40.5379C6.23438 41.6494 7.05705 42.5504 8.07188 42.5504Z" fill="white"/>
<path d="M30.2531 44.5627C32.2828 44.5627 33.9281 42.7606 33.9281 40.5377C33.9281 38.3148 32.2828 36.5127 30.2531 36.5127C28.2235 36.5127 26.5781 38.3148 26.5781 40.5377C26.5781 42.7606 28.2235 44.5627 30.2531 44.5627Z" fill="#62727A"/>
<path d="M32.091 40.5379C32.091 41.6879 31.2379 42.5504 30.2535 42.5504C29.2035 42.5504 28.416 41.616 28.416 40.5379C28.416 39.3879 29.2691 38.5254 30.2535 38.5254C31.2379 38.5254 32.091 39.3879 32.091 40.5379Z" fill="white"/>
<path d="M40.0973 1.4375H38.2598V5.4625H40.0973C40.4254 5.4625 40.6879 5.175 40.6879 4.81562V2.08438C40.6879 1.725 40.4254 1.4375 40.0973 1.4375Z" fill="#62727A"/>
<path d="M8.07227 35.1465C5.38164 35.1465 3.15039 37.5902 3.15039 40.5371H12.9941C12.9941 37.5184 10.8285 35.1465 8.07227 35.1465Z" fill="#F15744"/>
<path d="M30.2539 35.1465C27.5633 35.1465 25.332 37.5902 25.332 40.5371H35.1758C35.1758 37.5184 32.9445 35.1465 30.2539 35.1465Z" fill="#F15744"/>
</svg>
