<svg width="38" height="35" viewBox="0 0 38 35" fill="none" xmlns="http://www.w3.org/2000/svg">
<path d="M32.9014 33.6876H31.4723C31.2927 33.6876 31.1204 33.6218 30.9934 33.5047C30.8663 33.3876 30.795 33.2288 30.795 33.0632C30.795 32.8976 30.8663 32.7387 30.9934 32.6216C31.1204 32.5045 31.2927 32.4387 31.4723 32.4387H32.9014C33.373 32.4396 33.8402 32.3545 34.2761 32.1885C34.712 32.0224 35.1081 31.7787 35.4416 31.4712C35.7751 31.1637 36.0395 30.7985 36.2196 30.3966C36.3997 29.9947 36.4919 29.564 36.491 29.1291C36.4884 28.3681 36.2024 27.631 35.6809 27.041C35.1594 26.4511 34.434 26.0442 33.6261 25.8882C33.4464 25.8551 33.2884 25.7576 33.1868 25.617C33.0852 25.4765 33.0483 25.3045 33.0842 25.1389C33.1202 24.9733 33.226 24.8276 33.3784 24.7339C33.5308 24.6402 33.7174 24.6062 33.897 24.6393C35.1303 24.8357 36.2369 25.4559 36.9937 26.375C37.7505 27.294 38.1011 28.4435 37.9747 29.5915C37.8484 30.7395 37.2546 31.8006 36.313 32.5608C35.3715 33.321 34.1523 33.7237 32.9014 33.6876Z" fill="#F57C00"/>
<path d="M22.9452 33.6876H21.5229C20.2985 33.6873 19.1178 33.2681 18.2094 32.5112C17.3009 31.7543 16.7295 30.7136 16.6055 29.5905C16.4816 28.4674 16.8141 27.3419 17.5386 26.4319C18.263 25.5218 19.328 24.892 20.5272 24.6643C20.7069 24.6312 20.8934 24.6652 21.0458 24.7589C21.1983 24.8526 21.3041 24.9983 21.34 25.1639C21.3759 25.3295 21.339 25.5015 21.2374 25.642C21.1358 25.7825 20.9778 25.8801 20.7982 25.9132C19.993 26.065 19.269 26.4674 18.7473 27.0529C18.2257 27.6384 17.9383 28.3715 17.9332 29.1291C17.935 30.0064 18.3138 30.8472 18.9866 31.4675C19.6594 32.0879 20.5714 32.4371 21.5229 32.4387H22.9452C23.1248 32.4387 23.2971 32.5045 23.4241 32.6216C23.5511 32.7387 23.6225 32.8976 23.6225 33.0632C23.6225 33.2288 23.5511 33.3876 23.4241 33.5047C23.2971 33.6218 23.1248 33.6876 22.9452 33.6876Z" fill="#F57C00"/>
<path d="M27.2121 34.999C25.5282 35.0031 23.8892 34.4986 22.5456 33.5627C22.4744 33.5135 22.4145 33.4519 22.3692 33.3813C22.3238 33.3108 22.294 33.2327 22.2815 33.1515C22.2689 33.0703 22.2738 32.9876 22.2958 32.9082C22.3179 32.8288 22.3567 32.7541 22.4101 32.6885C22.4635 32.6229 22.5303 32.5676 22.6069 32.5259C22.6834 32.4841 22.7681 32.4566 22.8562 32.445C22.9442 32.4334 23.0339 32.4379 23.12 32.4583C23.2062 32.4786 23.2872 32.5144 23.3583 32.5636C24.4701 33.3352 25.8239 33.7524 27.2155 33.7524C28.6071 33.7524 29.9609 33.3352 31.0727 32.5636C31.2164 32.4642 31.397 32.4216 31.5748 32.445C31.7527 32.4684 31.9131 32.556 32.0209 32.6885C32.1287 32.821 32.1749 32.9875 32.1495 33.1515C32.1241 33.3154 32.0291 33.4634 31.8854 33.5627C30.54 34.4999 28.8983 35.0044 27.2121 34.999Z" fill="#F57C00"/>
<path d="M33.7818 25.9007C33.6489 25.9006 33.5189 25.8645 33.4081 25.7967C33.2973 25.729 33.2106 25.6327 33.1587 25.5198C32.6686 24.4436 31.8448 23.5249 30.7905 22.8787C29.7362 22.2326 28.4984 21.8879 27.2324 21.8879C25.9665 21.8879 24.7287 22.2326 23.6744 22.8787C22.6201 23.5249 21.7962 24.4436 21.3061 25.5198C21.2697 25.5965 21.2172 25.6658 21.1517 25.7238C21.0861 25.7817 21.0089 25.8272 20.9243 25.8577C20.8397 25.8881 20.7494 25.9029 20.6586 25.9012C20.5679 25.8995 20.4783 25.8813 20.3952 25.8476C20.312 25.814 20.2368 25.7656 20.174 25.7052C20.1111 25.6448 20.0617 25.5736 20.0287 25.4956C19.9957 25.4176 19.9797 25.3344 19.9815 25.2507C19.9834 25.167 20.0031 25.0844 20.0396 25.0078C20.6338 23.7063 21.6313 22.5954 22.9072 21.8143C24.1831 21.0332 25.6806 20.6165 27.2121 20.6165C28.7437 20.6165 30.2412 21.0332 31.517 21.8143C32.7929 22.5954 33.7904 23.7063 34.3846 25.0078C34.4546 25.1601 34.456 25.3319 34.3887 25.4852C34.3214 25.6386 34.1908 25.7611 34.0257 25.8258C33.951 25.8663 33.8679 25.8918 33.7818 25.9007Z" fill="#F57C00"/>
<path d="M14.6009 30.5654H14.3436C13.1192 30.565 11.9385 30.1458 11.0301 29.3889C10.1216 28.632 9.55015 27.5913 9.42624 26.4682C9.30232 25.3452 9.63478 24.2196 10.3593 23.3096C11.0837 22.3996 12.1487 21.7697 13.3479 21.5421C13.4369 21.5257 13.5285 21.5256 13.6174 21.5418C13.7064 21.558 13.7911 21.5903 13.8665 21.6366C13.942 21.683 14.0068 21.7427 14.0573 21.8122C14.1078 21.8816 14.1429 21.9596 14.1607 22.0416C14.1785 22.1236 14.1786 22.2081 14.161 22.2901C14.1434 22.3721 14.1084 22.4502 14.0581 22.5197C14.0078 22.5893 13.9431 22.6491 13.8677 22.6956C13.7924 22.7422 13.7078 22.7746 13.6189 22.791C12.8137 22.9428 12.0897 23.3452 11.568 23.9307C11.0464 24.5162 10.759 25.2492 10.7539 26.0069C10.7557 26.8841 11.1345 27.725 11.8073 28.3453C12.4801 28.9656 13.3921 29.3148 14.3436 29.3165H14.6009C14.7806 29.3165 14.9528 29.3823 15.0799 29.4994C15.2069 29.6165 15.2782 29.7753 15.2782 29.9409C15.2782 30.1065 15.2069 30.2654 15.0799 30.3825C14.9528 30.4996 14.7806 30.5654 14.6009 30.5654Z" fill="#F57C00"/>
<path d="M13.4631 22.7785C13.3721 22.78 13.2819 22.7629 13.1989 22.7285C13.1156 22.6949 13.0404 22.6461 12.9779 22.585C12.9155 22.524 12.867 22.452 12.8354 22.3733C12.8038 22.2946 12.7897 22.2109 12.794 22.1271C12.7982 22.0433 12.8208 21.9611 12.8603 21.8855C13.3056 20.909 13.98 20.0356 14.8351 19.3281C15.6903 18.6207 16.7048 18.0967 17.8058 17.794C18.9068 17.4912 20.0669 17.4172 21.2027 17.5772C22.3384 17.7373 23.4216 18.1274 24.3743 18.7195C24.5269 18.8114 24.6338 18.9555 24.6712 19.1201C24.7087 19.2846 24.6738 19.4561 24.5741 19.5969C24.4744 19.7377 24.3181 19.8361 24.1396 19.8707C23.9612 19.9052 23.7752 19.873 23.6225 19.7811C22.5651 19.115 21.3135 18.7601 20.0328 18.7632C18.7715 18.7663 17.5393 19.1129 16.491 19.7595C15.4426 20.4061 14.6249 21.3239 14.1404 22.3975C14.0853 22.5186 13.9901 22.6206 13.8686 22.689C13.747 22.7574 13.6051 22.7887 13.4631 22.7785Z" fill="#F57C00"/>
<path d="M7.36745 26.1443C7.23717 26.144 7.10973 26.1091 7.00041 26.0438C6.89109 25.9784 6.80453 25.8854 6.75112 25.7758L0.296524 12.4188C0.114441 12.0445 0.0141529 11.6408 0.00139284 11.2307C-0.0113673 10.8206 0.0636505 10.4122 0.222158 10.0289C0.380666 9.64557 0.619556 9.2948 0.925175 8.99663C1.23079 8.69847 1.59715 8.45875 2.0033 8.2912L16.1723 2.46507C16.2541 2.42532 16.3438 2.40144 16.436 2.3949C16.5282 2.38835 16.6208 2.39928 16.7083 2.427C16.7957 2.45472 16.8761 2.49866 16.9444 2.5561C17.0127 2.61354 17.0675 2.68327 17.1055 2.76099C17.1435 2.83871 17.1638 2.92278 17.1652 3.00802C17.1666 3.09325 17.1491 3.17785 17.1137 3.2566C17.0783 3.33535 17.0258 3.40659 16.9594 3.46591C16.893 3.52524 16.8141 3.57141 16.7276 3.60157L2.55868 9.4277C2.31165 9.52767 2.08869 9.672 1.9028 9.85226C1.71692 10.0325 1.57183 10.2451 1.476 10.4776C1.38017 10.7101 1.33552 10.9579 1.34465 11.2065C1.35378 11.4551 1.41652 11.6995 1.5292 11.9255L8.00411 25.2825C8.0774 25.4333 8.08292 25.6046 8.01945 25.7591C7.95598 25.9136 7.82869 26.0386 7.66546 26.1068C7.57043 26.1397 7.46858 26.1525 7.36745 26.1443Z" fill="#999999"/>
<path d="M9.17583 18.8382C8.81055 18.8378 8.45215 18.7466 8.13835 18.5742C7.82455 18.4018 7.56695 18.1546 7.39267 17.8586C7.21839 17.5627 7.13387 17.2289 7.14801 16.8923C7.16214 16.5558 7.27441 16.229 7.473 15.9464C7.67159 15.6637 7.94915 15.4356 8.27647 15.2861C8.60379 15.1366 8.96876 15.0713 9.33298 15.0969C9.6972 15.1225 10.0472 15.2382 10.3461 15.4318C10.645 15.6253 10.8818 15.8896 11.0316 16.1968C11.1443 16.4227 11.207 16.6672 11.2162 16.9158C11.2253 17.1643 11.1806 17.4121 11.0848 17.6446C10.989 17.8771 10.8439 18.0897 10.658 18.27C10.4721 18.4503 10.2491 18.5946 10.0021 18.6946C9.74017 18.7938 9.45899 18.8427 9.17583 18.8382ZM9.17583 16.3404C9.08073 16.3413 8.98661 16.3582 8.89814 16.3903C8.81588 16.4235 8.74158 16.4714 8.67958 16.5312C8.61757 16.5911 8.56909 16.6617 8.53695 16.739C8.50481 16.8162 8.48965 16.8986 8.49236 16.9814C8.49506 17.0641 8.51558 17.1455 8.55272 17.2209C8.58929 17.2961 8.64169 17.364 8.70687 17.4205C8.77206 17.477 8.84875 17.5211 8.93251 17.5501C9.01627 17.5792 9.10544 17.5926 9.19486 17.5897C9.28429 17.5867 9.3722 17.5675 9.45352 17.5331C9.61674 17.4649 9.74403 17.3399 9.8075 17.1854C9.87097 17.0309 9.86546 16.8596 9.79216 16.7088C9.73874 16.5992 9.65219 16.5062 9.54287 16.4409C9.43355 16.3755 9.30611 16.3406 9.17583 16.3404Z" fill="#666666"/>
<path d="M9.94794 16.5652C9.82495 16.5639 9.70468 16.5317 9.60002 16.4721C9.49537 16.4126 9.41028 16.3279 9.35389 16.2271C9.29749 16.1263 9.27193 16.0133 9.27994 15.9001C9.28794 15.787 9.32922 15.678 9.39933 15.5848L11.8782 12.3189C11.9845 12.1925 12.1395 12.1085 12.311 12.0842C12.4825 12.06 12.6576 12.0974 12.8001 12.1887C12.9426 12.2801 13.0416 12.4183 13.0768 12.575C13.1119 12.7317 13.0805 12.8948 12.989 13.0308L10.5101 16.2967C10.4472 16.3803 10.3631 16.4484 10.2651 16.4952C10.1672 16.542 10.0583 16.566 9.94794 16.5652Z" fill="#666666"/>
<path d="M10.6117 17.6829H10.4695C10.3805 17.6772 10.2937 17.6554 10.2139 17.6187C10.1341 17.582 10.0629 17.5312 10.0044 17.4691C9.94593 17.4071 9.90127 17.335 9.87298 17.2571C9.8447 17.1791 9.83335 17.0968 9.83957 17.0148C9.8458 16.9328 9.86948 16.8527 9.90927 16.7791C9.94906 16.7056 10.0042 16.64 10.0715 16.586C10.1388 16.5321 10.2169 16.4909 10.3015 16.4648C10.386 16.4388 10.4753 16.4283 10.5643 16.434H10.6591C10.8387 16.4398 11.0085 16.5112 11.1311 16.6324C11.2536 16.7536 11.319 16.9147 11.3127 17.0804C11.3064 17.246 11.229 17.4025 11.0975 17.5155C10.9661 17.6285 10.7913 17.6887 10.6117 17.6829Z" fill="black"/>
<path d="M9.12164 22.3601C8.96223 22.3628 8.80691 22.3135 8.68302 22.221C8.55913 22.1285 8.47462 21.9986 8.44435 21.8543C8.32229 21.2755 8.3762 20.6769 8.60013 20.1245L16.091 2.01546C16.2488 1.63132 16.4872 1.27967 16.7927 0.98064C17.0981 0.681615 17.4646 0.441099 17.871 0.272873C18.2775 0.104648 18.7159 0.0120193 19.1613 0.00029549C19.6066 -0.0114283 20.0501 0.057983 20.4663 0.204552L35.6715 5.58732C36.5101 5.88243 37.1873 6.47242 37.5544 7.22766C37.9214 7.9829 37.9482 8.84159 37.6289 9.61503L33.1452 20.418C33.0718 20.5604 32.9428 20.6719 32.784 20.7302C32.6252 20.7885 32.4484 20.7893 32.2889 20.7324C32.1295 20.6755 31.9994 20.5651 31.9245 20.4235C31.8497 20.2818 31.8357 20.1192 31.8854 19.9684L36.3623 9.17167C36.4581 8.94129 36.5036 8.69574 36.4962 8.4491C36.4888 8.20247 36.4286 7.95961 36.3191 7.73448C36.2096 7.50935 36.0529 7.30638 35.8581 7.13723C35.6633 6.96808 35.4342 6.83608 35.1838 6.7488L19.999 1.39725C19.7491 1.30893 19.4827 1.26698 19.2152 1.27382C18.9477 1.28066 18.6843 1.33616 18.4401 1.43712C18.196 1.53808 17.9758 1.68251 17.7924 1.86213C17.6089 2.04175 17.4657 2.25302 17.3711 2.4838L17.0595 3.25187L9.88021 20.5679C9.74375 20.9027 9.71092 21.2659 9.78539 21.617C9.81919 21.7793 9.78186 21.9473 9.68157 22.0842C9.58128 22.2211 9.42621 22.3159 9.25033 22.3476L9.12164 22.3601Z" fill="#999999"/>
<path d="M18.8814 12.9184C18.6337 12.9169 18.3883 12.8746 18.1567 12.7935C17.6837 12.6257 17.2957 12.301 17.069 11.8831C16.8422 11.4651 16.7931 10.9841 16.9312 10.5345C17.0693 10.0849 17.3847 9.69912 17.8155 9.45287C18.2463 9.20663 18.7613 9.11771 19.2595 9.20357C19.7577 9.28943 20.2032 9.54387 20.5084 9.91694C20.8136 10.29 20.9565 10.7548 20.9092 11.2201C20.8618 11.6853 20.6276 12.1175 20.2524 12.4317C19.8773 12.7459 19.3883 12.9195 18.8814 12.9184ZM18.8814 10.4206C18.7248 10.4231 18.5739 10.4755 18.4545 10.5691C18.3351 10.6626 18.2546 10.7914 18.2266 10.9335C18.1987 11.0756 18.225 11.2223 18.3012 11.3485C18.3774 11.4748 18.4986 11.5727 18.6444 11.6258C18.7293 11.661 18.8212 11.6797 18.9144 11.6807C19.0075 11.6817 19.0999 11.665 19.1857 11.6316C19.2715 11.5982 19.3489 11.5488 19.4131 11.4866C19.4773 11.4243 19.5269 11.3505 19.5587 11.2698C19.5913 11.1928 19.6071 11.1106 19.6049 11.0279C19.6028 10.9452 19.5829 10.8637 19.5464 10.7882C19.5098 10.7127 19.4574 10.6446 19.392 10.5879C19.3267 10.5313 19.2499 10.4871 19.1659 10.458C19.0745 10.4291 18.978 10.4164 18.8814 10.4206Z" fill="#666666"/>
<path d="M30.5715 11.0138C30.1787 11.0137 29.7944 10.9087 29.4651 10.7114C29.1357 10.5141 28.8754 10.2331 28.7157 9.90228C28.5571 9.56471 28.5098 9.19156 28.5797 8.82937C28.6497 8.46718 28.8337 8.13199 29.1089 7.86561C29.3841 7.59923 29.7383 7.41345 30.1272 7.33144C30.5162 7.24944 30.9228 7.27484 31.2962 7.40448C31.6712 7.53707 31.9952 7.76919 32.2273 8.07149C32.4593 8.3738 32.5889 8.73273 32.5998 9.10293C32.6107 9.47314 32.5023 9.83801 32.2884 10.1514C32.0744 10.4649 31.7645 10.7128 31.3978 10.8639C31.1363 10.9653 30.8551 11.0163 30.5715 11.0138ZM30.5715 8.516C30.4764 8.51688 30.3823 8.53381 30.2938 8.56596C30.2118 8.59944 30.1379 8.64759 30.0763 8.70762C30.0147 8.76765 29.9666 8.83836 29.9348 8.91565C29.8708 9.07048 29.8708 9.24164 29.9348 9.39648C29.9714 9.47177 30.0238 9.53963 30.089 9.59615C30.1542 9.65267 30.2309 9.69671 30.3146 9.72575C30.3984 9.75478 30.4876 9.76822 30.577 9.76529C30.6664 9.76237 30.7543 9.74313 30.8356 9.7087C30.9973 9.64119 31.1238 9.51786 31.1878 9.36525C31.2194 9.28858 31.2343 9.20692 31.2317 9.12494C31.229 9.04296 31.2089 8.96226 31.1724 8.88746C31.1359 8.81265 31.0838 8.74521 31.019 8.68897C30.9543 8.63274 30.8782 8.58881 30.795 8.55971C30.7237 8.53358 30.6481 8.5188 30.5715 8.516Z" fill="#666666"/>
<path d="M20.236 11.4509C20.0564 11.465 19.878 11.4127 19.7402 11.3056C19.6024 11.1984 19.5164 11.0452 19.5011 10.8795C19.4859 10.7139 19.5426 10.5495 19.6588 10.4224C19.775 10.2954 19.9412 10.2161 20.1209 10.202L29.1221 8.77203C29.211 8.75808 29.3021 8.76043 29.39 8.77893C29.478 8.79744 29.5611 8.83173 29.6347 8.87986C29.7083 8.92799 29.7709 8.98901 29.8189 9.05943C29.8669 9.12986 29.8994 9.20832 29.9145 9.29032C29.9296 9.37232 29.9271 9.45627 29.907 9.53737C29.8869 9.61846 29.8498 9.69512 29.7976 9.76297C29.7453 9.83081 29.6792 9.88851 29.6028 9.93277C29.5264 9.97703 29.4413 10.007 29.3524 10.0209L20.3511 11.4384C20.3139 11.4491 20.2749 11.4533 20.236 11.4509Z" fill="#666666"/>
<path d="M23.9543 17.0273C23.8582 17.0272 23.7631 17.0082 23.6756 16.9716C23.588 16.935 23.5098 16.8816 23.4464 16.815L19.2743 12.4001C19.1557 12.275 19.0959 12.1117 19.1079 11.946C19.12 11.7803 19.203 11.6258 19.3386 11.5165C19.4742 11.4072 19.6514 11.352 19.8311 11.3632C20.0108 11.3743 20.1784 11.4508 20.297 11.5758L24.4691 15.9907C24.5867 16.1158 24.6456 16.2787 24.6329 16.4438C24.6202 16.6089 24.5369 16.7626 24.4014 16.8712C24.2779 16.9716 24.119 17.0271 23.9543 17.0273Z" fill="#666666"/>
</svg>
