<svg width="42" height="42" viewBox="0 0 42 42" fill="none" xmlns="http://www.w3.org/2000/svg">
<path fill-rule="evenodd" clip-rule="evenodd" d="M6.64453 17.1445L2.80957 10.5H10.5V2.77881L17.1445 6.64453L21 0L24.8555 6.64453L31.5 2.77881V10.5H39.2212L35.3555 17.1445L42 21L35.3555 24.8555L39.2212 31.5H31.5V39.1904L24.8555 35.3555L21 42L17.1445 35.3555L10.5 39.1904V31.5H2.80957L6.64453 24.8555L0 21L6.64453 17.1445Z" fill="#CE2334"/>
<path fill-rule="evenodd" clip-rule="evenodd" d="M8.80469 17.7256L5.54736 12.0825H12.0825V5.52344L17.7256 8.80469L21 3.16162L24.2744 8.80469L29.9209 5.52344V12.0825H36.4766L33.1953 17.7256L38.8384 21L33.1953 24.2744L36.4766 29.9175H29.9209V36.4526L24.2744 33.1953L21 38.8384L17.7256 33.1953L12.0825 36.4526V29.9175H5.54736L8.80469 24.2744L3.16162 21L8.80469 17.7256Z" fill="#E5273A"/>
<path d="M12.5713 23.2012C12.2295 23.167 11.8809 23.0884 11.522 22.9688C11.1426 22.8423 10.7769 22.6782 10.4248 22.4731C10.3906 22.4526 10.3564 22.4321 10.3223 22.4116C9.95996 22.1929 9.64209 21.9605 9.37207 21.7109C9.04395 21.4102 8.77051 21.082 8.54834 20.7231C8.52442 20.6821 8.50049 20.6445 8.47998 20.6035C8.27832 20.2583 8.13818 19.9131 8.05273 19.5679C7.94336 19.127 7.92627 18.6929 7.99805 18.2588V18.252C8.05615 17.917 8.16211 17.5581 8.31592 17.1855C8.44922 16.8643 8.62695 16.5156 8.8457 16.1362C8.86279 16.1055 8.87988 16.0781 8.90039 16.0474L9.16016 15.5996C9.396 15.186 9.78223 14.9126 10.2129 14.8032C10.2129 14.6016 10.2266 14.3965 10.2573 14.1914C10.2983 13.9043 10.3804 13.5967 10.5068 13.2686C10.6162 12.9849 10.7529 12.6978 10.9238 12.4038C11.1665 11.9868 11.3989 11.6416 11.6245 11.3716C11.915 11.0229 12.2261 10.7495 12.561 10.5479L12.5576 10.5444C12.896 10.3428 13.2583 10.1992 13.6445 10.124C13.9897 10.0557 14.3623 10.0386 14.7656 10.0762C15.1382 10.1104 15.5073 10.1924 15.8765 10.3223C16.2114 10.4385 16.5566 10.5991 16.9087 10.8042L16.9121 10.8076L16.9155 10.8042C17.2812 11.0161 17.6128 11.2485 17.9102 11.5049C18.2246 11.7749 18.4946 12.0688 18.7168 12.3833L18.7236 12.3901C18.9116 12.6567 19.062 12.9268 19.1748 13.1968C19.6807 12.9507 20.2891 12.9644 20.7915 13.2651L23.8848 15.0527C24.1992 15.2373 24.4351 15.5039 24.5752 15.8115C24.9102 15.7808 25.2588 15.8491 25.5732 16.0303L27.73 17.2744C28.0991 17.4863 28.3555 17.8145 28.4854 18.187C28.8716 18.1118 29.2817 18.1699 29.6475 18.3818L33.2397 20.4565C34.0498 20.9214 34.3301 21.957 33.8652 22.7671L32.9116 24.4214C32.7271 24.7461 32.4502 24.9819 32.1323 25.1255C32.1289 25.4092 32.0571 25.6929 31.9033 25.9561L30.9976 27.5283C30.8369 27.8052 30.6079 28.0205 30.3481 28.1641C30.4746 28.5947 30.4302 29.0698 30.1875 29.4902C30.1704 29.521 30.1533 29.5483 30.1328 29.5757L29.2339 31.1377C28.769 31.9478 27.7334 32.228 26.9233 31.7632L26.9165 31.7598V31.7632L23.1738 29.5962C23.0679 29.5347 22.9722 29.4629 22.8867 29.3843C22.7739 29.3467 22.6611 29.2988 22.5552 29.2373C22.5244 29.2202 22.4971 29.2031 22.4697 29.1826L19.1064 27.2412C19.0313 27.1968 18.9595 27.1489 18.8911 27.0942L18.8672 27.0874C18.7476 27.0396 18.6348 26.9814 18.5322 26.9097L16.4404 25.7031C16.2593 25.6006 16.1055 25.4673 15.9824 25.3169C15.791 25.2827 15.6064 25.2178 15.4321 25.1187L13.2036 23.8301C12.9302 23.6797 12.7183 23.4575 12.5713 23.2012Z" fill="#CE2334"/>
<path d="M16.9189 16.3311L14.9194 15.1758L15.2715 14.564C15.4355 14.2769 15.5176 14.0786 15.5107 13.9727C15.5039 13.8633 15.4424 13.7778 15.3262 13.7095C15.1963 13.6343 15.0698 13.6309 14.9399 13.6992C14.8135 13.7642 14.687 13.9043 14.564 14.1196C14.4033 14.3965 14.3247 14.6255 14.3179 14.8066C14.311 14.9878 14.417 15.2715 14.6357 15.6646C15.2612 16.7856 15.5928 17.6025 15.6304 18.1118C15.668 18.6211 15.4526 19.2808 14.9844 20.0908C14.6426 20.6821 14.3247 21.0752 14.0239 21.2769C13.7231 21.4751 13.3232 21.5571 12.8208 21.5161C12.3149 21.4785 11.8022 21.3076 11.2793 21.0034C10.7017 20.6719 10.2778 20.2788 9.99414 19.8242C9.71387 19.3696 9.60791 18.939 9.67627 18.5288C9.74463 18.1187 9.95996 17.6025 10.3188 16.9805L10.6333 16.437L12.6328 17.5923L12.0518 18.6006C11.8706 18.9116 11.7852 19.127 11.7886 19.2466C11.792 19.3662 11.8672 19.4688 12.0107 19.5508C12.1543 19.6328 12.291 19.6397 12.4277 19.5645C12.561 19.4927 12.6943 19.3457 12.8208 19.127C13.1011 18.6382 13.2207 18.2827 13.1729 18.0571C13.1216 17.8281 12.9302 17.3838 12.6021 16.7207C12.2739 16.0576 12.0688 15.5962 11.9868 15.3364C11.9082 15.0767 11.8911 14.769 11.939 14.4238C11.9902 14.0752 12.1406 13.6821 12.3936 13.2412C12.7593 12.6089 13.1079 12.1885 13.4395 11.9902C13.771 11.792 14.1641 11.7134 14.6187 11.7544C15.0767 11.7988 15.5586 11.9663 16.0679 12.2603C16.625 12.5815 17.0488 12.9473 17.3394 13.354C17.6265 13.7607 17.7563 14.1401 17.7256 14.4888C17.6948 14.8374 17.4897 15.3398 17.1104 15.9961L16.9189 16.3311ZM23.0371 16.5156L19.4893 25.5083L17.2881 24.2368L18.0298 22.6816L17.2539 22.2339L16.2798 23.6523L14.0513 22.3672L19.9268 14.7144L23.0371 16.5156ZM18.8193 21.1846C19.2568 20.1865 19.8208 18.9595 20.5078 17.5068C19.3765 18.9766 18.5698 20.0601 18.0879 20.7607L18.8193 21.1846ZM26.8892 18.7373L23.061 25.3647L24.3599 26.1133L23.4063 27.7676L19.9507 25.7715L24.7324 17.4863L26.8892 18.7373ZM28.8101 19.8447L32.4023 21.9194L31.4453 23.5737L30.0098 22.7466L29.0972 24.3291L30.437 25.1016L29.5313 26.6738L28.1914 25.9014L27.1387 27.7197L28.7212 28.6323L27.7676 30.2866L24.0249 28.1299L28.8101 19.8447Z" fill="white"/>
</svg>
