<svg width="43" height="32" viewBox="0 0 43 32" fill="none" xmlns="http://www.w3.org/2000/svg">
<path d="M20.7139 15.1799H11.3706L4.5877 19.3325C4.31818 19.5171 4.00374 19.2402 4.04866 18.9173L5.0369 15.1338H2.02727C1.21872 15.1338 0.5 14.3956 0.5 13.5651V1.56875C0.5 0.738235 1.21872 0 2.02727 0H20.7139C21.5225 0 22.2412 0.738235 22.2412 1.56875V13.6573C22.2412 14.534 21.5674 15.1799 20.7139 15.1799Z" fill="#A9F1DF"/>
<path d="M16.177 26.5301H28.3503L37.1995 31.9284C37.5588 32.1591 37.9631 31.79 37.9182 31.4209L36.6155 26.5301H40.5235C41.6016 26.5301 42.5 25.5611 42.5 24.4999V8.8586C42.5 7.75125 41.5567 6.82846 40.5235 6.82846H16.2668C15.1888 6.82846 14.2904 7.79739 14.2904 8.8586V24.5922C14.1556 25.6534 15.0989 26.5301 16.177 26.5301Z" fill="#1EAE98"/>
<path d="M28.3503 15.1339C29.2038 15.1339 29.8326 15.8721 29.8326 16.6565C29.8326 17.4409 29.1139 18.1791 28.3503 18.1791C27.4968 18.1791 26.8679 17.4409 26.8679 16.6565C26.8679 15.8721 27.4968 15.1339 28.3503 15.1339Z" fill="white"/>
<path d="M34.4594 15.1339C35.3128 15.1339 35.9417 15.8721 35.9417 16.6565C35.9417 17.4409 35.223 18.1791 34.4594 18.1791C33.6059 18.1791 32.977 17.4409 32.977 16.6565C32.977 15.8721 33.6059 15.1339 34.4594 15.1339Z" fill="white"/>
<path d="M22.1963 15.1339C23.0497 15.1339 23.6786 15.8721 23.6786 16.6565C23.6786 17.4409 22.9599 18.1791 22.1963 18.1791C21.3428 18.1791 20.7139 17.4409 20.7139 16.6565C20.7139 15.8721 21.3428 15.1339 22.1963 15.1339Z" fill="white"/>
</svg>
