<svg width="40" height="26" viewBox="0 0 40 26" fill="none" xmlns="http://www.w3.org/2000/svg">
<path d="M35.626 0H4.37372V26H35.626V0Z" fill="#399FB8"/>
<path fill-rule="evenodd" clip-rule="evenodd" d="M13.0577 24.8208H26.9421V15.6251C26.9421 7.82919 13.0577 7.85037 13.0577 15.6251V24.8208Z" fill="#21839C"/>
<path fill-rule="evenodd" clip-rule="evenodd" d="M13.8011 26H26.1986V15.4723C26.1986 8.80945 13.8011 8.80138 13.8011 15.4723V26Z" fill="#9FECFF"/>
<path d="M13.8011 24.8208H4.37372V26H13.8011V24.8208Z" fill="#21839C"/>
<path fill-rule="evenodd" clip-rule="evenodd" d="M0 7.32545L40 7.32571L35.626 0H4.37372L0 7.32545Z" fill="#FF9274"/>
<path fill-rule="evenodd" clip-rule="evenodd" d="M3.63614 7.32571C3.63614 8.34101 4.45007 9.16444 5.45435 9.16444C6.45862 9.16444 7.27281 8.34126 7.27281 7.32571H3.63614Z" fill="#EDC256"/>
<path fill-rule="evenodd" clip-rule="evenodd" d="M10.909 7.32571C10.909 8.34101 11.7231 9.16444 12.7272 9.16444C13.7314 9.16444 14.5454 8.34126 14.5454 7.32571H10.909Z" fill="#EDC256"/>
<path fill-rule="evenodd" clip-rule="evenodd" d="M18.1818 7.32571C18.1818 8.34101 18.9957 9.16444 20 9.16444C21.0043 9.16444 21.8184 8.34126 21.8184 7.32571H18.1818Z" fill="#EDC256"/>
<path fill-rule="evenodd" clip-rule="evenodd" d="M25.4543 7.32571C25.4543 8.34101 26.2685 9.16444 27.2726 9.16444C28.2768 9.16444 29.091 8.34126 29.091 7.32571H25.4543Z" fill="#EDC256"/>
<path fill-rule="evenodd" clip-rule="evenodd" d="M32.7272 7.32571C32.7272 8.34101 33.5411 9.16444 34.5454 9.16444C35.5496 9.16444 36.3638 8.34126 36.3638 7.32571H32.7272Z" fill="#EDC256"/>
<path fill-rule="evenodd" clip-rule="evenodd" d="M3.63614 7.32571C3.63614 8.34126 2.82196 9.16419 1.81793 9.16419C0.813913 9.16419 0 8.34101 0 7.32545L3.63614 7.32571Z" fill="#E85931"/>
<path fill-rule="evenodd" clip-rule="evenodd" d="M10.909 7.32571C10.909 8.34101 10.0948 9.16444 9.09076 9.16444C8.08648 9.16444 7.27281 8.34126 7.27281 7.32571H10.909Z" fill="#E85931"/>
<path fill-rule="evenodd" clip-rule="evenodd" d="M18.1818 7.32571C18.1818 8.34101 17.3676 9.16444 16.3636 9.16444C15.3593 9.16444 14.5454 8.34126 14.5454 7.32571H18.1818Z" fill="#E85931"/>
<path fill-rule="evenodd" clip-rule="evenodd" d="M25.4543 7.32571C25.4543 8.34101 24.6402 9.16444 23.6361 9.16444C22.6319 9.16444 21.8179 8.34126 21.8179 7.32571H25.4543Z" fill="#E85931"/>
<path fill-rule="evenodd" clip-rule="evenodd" d="M32.7272 7.32571C32.7272 8.34101 31.913 9.16444 30.909 9.16444C29.9047 9.16444 29.091 8.34126 29.091 7.32571H32.7272Z" fill="#E85931"/>
<path fill-rule="evenodd" clip-rule="evenodd" d="M40 7.32571C40 8.34101 39.1858 9.16444 38.1818 9.16444C37.1775 9.16444 36.3638 8.34126 36.3638 7.32571H40Z" fill="#E85931"/>
<path fill-rule="evenodd" clip-rule="evenodd" d="M3.63614 7.32571H36.3638L32.7851 0H7.21491L3.63614 7.32571Z" fill="#FFD873"/>
<path fill-rule="evenodd" clip-rule="evenodd" d="M7.27281 7.32571H32.7272L29.9439 0H10.0558L7.27281 7.32571Z" fill="#FF9274"/>
<path fill-rule="evenodd" clip-rule="evenodd" d="M10.909 7.32571H29.091L27.1027 0H12.897L10.909 7.32571Z" fill="#FFD873"/>
<path fill-rule="evenodd" clip-rule="evenodd" d="M14.5454 7.32571H25.4543L24.2615 0H15.7382L14.5454 7.32571Z" fill="#FF9274"/>
<path fill-rule="evenodd" clip-rule="evenodd" d="M18.1818 7.32571H21.8184L21.4203 0H18.5791L18.1818 7.32571Z" fill="#FFD873"/>
<path fill-rule="evenodd" clip-rule="evenodd" d="M27.9948 21.9885H34.6463V12.5832C34.6463 8.84828 27.9948 8.85862 27.9948 12.5832V21.9885Z" fill="#21839C"/>
<path fill-rule="evenodd" clip-rule="evenodd" d="M28.6757 21.3034H33.9656V12.6243C33.9656 9.78114 28.6757 9.77761 28.6757 12.6243V21.3034Z" fill="#9FECFF"/>
<path fill-rule="evenodd" clip-rule="evenodd" d="M28.6757 16.8867L33.8081 11.8362C33.7281 11.6524 33.621 11.4873 33.4917 11.341L28.6757 16.0802V16.8867Z" fill="#DEF8FF"/>
<path fill-rule="evenodd" clip-rule="evenodd" d="M28.6757 19.3066L33.9656 14.1008V12.6243C33.9656 12.5792 33.9643 12.5353 33.9615 12.4917L28.6755 17.6938L28.6757 19.3066Z" fill="#DEF8FF"/>
<path fill-rule="evenodd" clip-rule="evenodd" d="M28.6757 20.9197L33.9656 15.7139V14.9071L28.6757 20.1132V20.9197Z" fill="#DEF8FF"/>
<path fill-rule="evenodd" clip-rule="evenodd" d="M5.39824 21.9885H12.0498V12.5832C12.0498 8.84828 5.39824 8.85862 5.39824 12.5832V21.9885Z" fill="#21839C"/>
<path fill-rule="evenodd" clip-rule="evenodd" d="M6.07895 21.3034H11.3688V12.6243C11.3688 9.78114 6.07895 9.77761 6.07895 12.6243V21.3034Z" fill="#9FECFF"/>
<path fill-rule="evenodd" clip-rule="evenodd" d="M6.07895 16.8867L11.2115 11.8362C11.1316 11.6524 11.0245 11.4873 10.8951 11.341L6.07895 16.0802V16.8867Z" fill="#DEF8FF"/>
<path fill-rule="evenodd" clip-rule="evenodd" d="M6.07895 19.3066L11.3688 14.1008V12.6243C11.3688 12.5792 11.3675 12.5353 11.3647 12.4917L6.07895 17.6933V19.3066Z" fill="#DEF8FF"/>
<path fill-rule="evenodd" clip-rule="evenodd" d="M6.07895 20.9197L11.3691 15.7139V14.9071L6.07895 20.1132V20.9197Z" fill="#DEF8FF"/>
<path d="M35.6263 24.8208H26.1986V26H35.626L35.6263 24.8208Z" fill="#21839C"/>
<path fill-rule="evenodd" clip-rule="evenodd" d="M19.9623 21.2613L26.1871 15.1357C26.1673 14.8337 26.1212 14.546 26.0515 14.273L19.9623 20.2652V21.2613ZM19.9623 19.2691V17.2768L24.975 12.344C25.3068 12.6924 25.5842 13.0885 25.79 13.5345L19.9623 19.2691ZM19.9623 16.2806V15.2845L23.8519 11.4573C24.0609 11.5813 24.2613 11.7174 24.4493 11.8654L19.9623 16.2806ZM15.1472 26L19.9623 21.2613V20.2652L14.1349 26H15.1472ZM19.9623 15.2845V16.2806L13.8011 22.3437V21.3476L19.9623 15.2845ZM19.9623 17.2768V19.2691L13.8011 25.3324V23.3401L19.9623 17.2768Z" fill="#DEF8FF"/>
</svg>
